<svg width="24" height="23" viewBox="0 0 24 23" fill="none" xmlns="http://www.w3.org/2000/svg">
<path d="M16.2 20.7V21.6C16.2 21.8387 16.1052 22.0676 15.9364 22.2364C15.7676 22.4052 15.5387 22.5 15.3 22.5H8.1C7.86131 22.5 7.63239 22.4052 7.46361 22.2364C7.29482 22.0676 7.2 21.8387 7.2 21.6V20.7C7.20079 19.9842 7.4855 19.2979 7.99168 18.7917C8.49786 18.2855 9.18416 18.0008 9.9 18H10.8V3.42225L5.11875 2.16L6.89319 6.3H0.30681L2.77281 0.54576C2.79351 0.505453 2.81731 0.466816 2.844 0.4302C2.85885 0.40644 2.87046 0.38187 2.88729 0.35973C2.95029 0.274386 3.02801 0.200966 3.11679 0.14292L3.11985 0.14148C3.20806 0.0875326 3.305 0.0493717 3.40632 0.0287099C3.43332 0.0225899 3.45942 0.02034 3.48669 0.01674C3.52406 0.00872275 3.56191 0.00313109 3.6 0C3.64612 0.0031565 3.69192 0.00992732 3.73698 0.02025C3.75669 0.02322 3.77541 0.0168298 3.79512 0.0210598L19.9951 3.62106C20.0049 3.62331 20.0119 3.63006 20.0214 3.63276C20.124 3.65802 20.2212 3.70126 20.3087 3.76047C20.3267 3.77307 20.3401 3.78999 20.3574 3.80376C20.4217 3.85508 20.4786 3.91512 20.5264 3.98214C20.56 4.03662 20.5936 4.09116 20.627 4.14576L23.0932 9.9H16.5068L18.5454 5.1435L12.6 3.82221V18H13.5C14.2158 18.0008 14.9021 18.2855 15.4083 18.7917C15.9145 19.2979 16.1992 19.9842 16.2 20.7ZM0 8.1C0 9.05478 0.379285 9.97045 1.05442 10.6456C1.72955 11.3207 2.64522 11.7 3.6 11.7C4.55478 11.7 5.47045 11.3207 6.14559 10.6456C6.82072 9.97045 7.2 9.05478 7.2 8.1H0ZM16.2 11.7C16.2 12.6548 16.5793 13.5705 17.2544 14.2456C17.9296 14.9207 18.8452 15.3 19.8 15.3C20.7548 15.3 21.6705 14.9207 22.3456 14.2456C23.0207 13.5705 23.4 12.6548 23.4 11.7H16.2Z" fill="#F3F5F8"/>
</svg>
