<svg width="26" height="24" viewBox="0 0 26 24" fill="none" xmlns="http://www.w3.org/2000/svg">
<path d="M0.913891 0.000513782C-0.171219 -0.0325399 -0.35317 1.53951 0.710778 1.75531L2.67093 2.18466C3.7078 7.14481 4.83804 12.0847 5.93405 17.0324C6.02417 17.4381 6.38404 17.7268 6.79959 17.7267H22.3648C23.564 17.7444 23.564 15.9363 22.3648 15.9539H7.51106L7.11868 14.1818H23.1501C23.5657 14.1819 23.9256 13.8932 24.0157 13.4876L25.9787 4.62501C26.1011 4.07183 25.6803 3.54741 25.1138 3.54708C18.3321 3.54723 11.5505 3.54694 4.76904 3.54374L4.28723 1.2578C4.21543 0.916632 3.95031 0.64928 3.60981 0.574563L1.08937 0.0228692C1.03175 0.00958069 0.97303 0.00189731 0.913947 0.000445625L0.913891 0.000513782ZM10.489 18.3182C9.19421 18.3182 8.12553 19.387 8.12553 20.6819C8.12553 21.9768 9.19421 23.0455 10.489 23.0455C11.7839 23.0455 12.8525 21.9768 12.8525 20.6819C12.8525 19.387 11.7839 18.3182 10.489 18.3182ZM18.7612 18.3182C17.4664 18.3182 16.3978 19.387 16.3978 20.6819C16.3978 21.9768 17.4664 23.0455 18.7612 23.0455C20.0561 23.0455 21.1247 21.9768 21.1247 20.6819C21.1247 19.387 20.0561 18.3182 18.7612 18.3182Z" fill="white"/>
</svg>