<svg width="17" height="16" viewBox="0 0 17 16" fill="none" xmlns="http://www.w3.org/2000/svg">
<path fill-rule="evenodd" clip-rule="evenodd" d="M8.5 16C12.9183 16 16.5 12.4183 16.5 8C16.5 3.58172 12.9183 0 8.5 0C4.08172 0 0.5 3.58172 0.5 8C0.5 12.4183 4.08172 16 8.5 16ZM12.2071 6.70711C12.5976 6.31658 12.5976 5.68342 12.2071 5.29289C11.8166 4.90237 11.1834 4.90237 10.7929 5.29289L7.5 8.58579L6.20711 7.29289C5.81658 6.90237 5.18342 6.90237 4.79289 7.29289C4.40237 7.68342 4.40237 8.31658 4.79289 8.70711L6.79289 10.7071C7.18342 11.0976 7.81658 11.0976 8.20711 10.7071L12.2071 6.70711Z" fill="#333333"/>
</svg>
