<svg width="18" height="18" viewBox="0 0 18 18" fill="none" xmlns="http://www.w3.org/2000/svg">
<path d="M11.1256 2.66699L2.42969 11.3451C3.1454 11.8103 3.87901 12.4007 4.54105 13.0628C5.1852 13.7069 5.79355 14.4405 6.25877 15.1741L14.9547 6.47818C14.6148 5.88772 14.078 5.15411 13.2728 4.34893C12.4497 3.54375 11.734 3.00696 11.1256 2.66699Z" fill="#0D2C36"/>
<path d="M16.9567 2.30806L15.2927 0.644021C14.7022 0.0535554 13.736 0.0535554 13.1455 0.644021L12.0898 1.6997C12.8056 2.16492 13.5392 2.75538 14.2012 3.41742C14.8632 4.07946 15.4537 4.79518 15.9189 5.52879L16.9746 4.4731C17.5472 3.86475 17.5472 2.89853 16.9567 2.30806Z" fill="#0D2C36"/>
<path d="M1.64071 12.418L0.423995 16.4797C0.298745 16.9091 0.692389 17.3027 1.12182 17.1775L5.18351 15.9608C4.84355 15.3882 4.32465 14.7262 3.60894 13.9925C2.87533 13.2589 2.21329 12.7579 1.64071 12.418Z" fill="#0D2C36"/>
</svg>
