<svg width="23" height="22" viewBox="0 0 23 22" fill="none" xmlns="http://www.w3.org/2000/svg">
<path d="M14.5747 3.19141L3.3208 14.4221C4.24705 15.0242 5.19645 15.7883 6.05323 16.6451C6.88685 17.4787 7.67416 18.4281 8.27622 19.3775L19.5301 8.12365C19.0901 7.3595 18.3955 6.4101 17.3534 5.36808C16.2883 4.32605 15.362 3.63137 14.5747 3.19141Z" fill="white"/>
<path d="M22.1232 2.72663L19.9697 0.573113C19.2055 -0.191038 17.9551 -0.191038 17.1909 0.573113L15.8247 1.93932C16.751 2.54138 17.7004 3.30553 18.5571 4.16231C19.4139 5.01908 20.1781 5.94533 20.7801 6.89473L22.1463 5.52852C22.8873 4.74121 22.8873 3.49078 22.1232 2.72663Z" fill="white"/>
<path d="M2.30243 15.8086L0.727814 21.065C0.565721 21.6208 1.07516 22.1302 1.6309 21.9681L6.88735 20.3935C6.44739 19.6525 5.77586 18.7957 4.84961 17.8463C3.90021 16.8969 3.04343 16.2486 2.30243 15.8086Z" fill="white"/>
</svg>