<svg width="6" height="20" viewBox="0 0 6 20" fill="none" xmlns="http://www.w3.org/2000/svg">
<path d="M0.587891 17.0957C0.587891 17.6882 0.795247 18.2002 1.20996 18.6318C1.62467 19.055 2.22135 19.2666 3 19.2666C3.77865 19.2666 4.37109 19.055 4.77734 18.6318C5.19206 18.2002 5.39941 17.6882 5.39941 17.0957C5.39941 16.5033 5.19206 15.9954 4.77734 15.5723C4.36263 15.1406 3.76595 14.9248 2.9873 14.9248C2.20866 14.9248 1.61198 15.1406 1.19727 15.5723C0.791016 15.9954 0.587891 16.5033 0.587891 17.0957ZM1.19727 13.0967H4.79004L5.04395 0.515625H0.956055L1.19727 13.0967Z" fill="white"/>
</svg>