<svg width="20" height="22" viewBox="0 0 20 22" fill="none" xmlns="http://www.w3.org/2000/svg">
<path d="M6.1875 0.6875C6.1875 0.307804 6.4953 0 6.875 0H12.375C12.7547 0 13.0625 0.307804 13.0625 0.6875V3.4375C13.0625 3.81719 12.7547 4.125 12.375 4.125H6.875C6.4953 4.125 6.1875 3.81719 6.1875 3.4375V0.6875Z" fill="#0D2C36"/>
<path fill-rule="evenodd" clip-rule="evenodd" d="M3.4375 1.375H4.8125V4.58334C4.8125 5.0896 5.24342 5.5 5.775 5.5H13.475C14.0066 5.5 14.4375 5.0896 14.4375 4.58334V1.375H15.8125C17.711 1.375 19.25 2.91402 19.25 4.8125V18.5625C19.25 20.461 17.711 22 15.8125 22H3.4375C1.53902 22 0 20.461 0 18.5625V4.8125C0 2.91402 1.53902 1.375 3.4375 1.375ZM13.75 17.1875C13.75 17.5672 13.4422 17.875 13.0625 17.875C12.6828 17.875 12.375 17.5672 12.375 17.1875V8.9375C12.375 8.55779 12.6828 8.25 13.0625 8.25C13.4422 8.25 13.75 8.55779 13.75 8.9375V17.1875ZM9.625 17.875C10.0047 17.875 10.3125 17.5672 10.3125 17.1875V11.6875C10.3125 11.3078 10.0047 11 9.625 11C9.24529 11 8.9375 11.3078 8.9375 11.6875V17.1875C8.9375 17.5672 9.24529 17.875 9.625 17.875ZM6.875 17.1875C6.875 17.5672 6.56719 17.875 6.1875 17.875C5.8078 17.875 5.5 17.5672 5.5 17.1875V14.4375C5.5 14.0578 5.80781 13.75 6.1875 13.75C6.5672 13.75 6.875 14.0578 6.875 14.4375V17.1875Z" fill="#0D2C36"/>
</svg>
