<svg width="17" height="14" viewBox="0 0 17 14" fill="none" xmlns="http://www.w3.org/2000/svg">
<path d="M4.82761 0C5.18582 0 5.53412 0.109889 5.82629 0.312937L5.94793 0.405613L7.79489 1.94444H13.8056C14.6897 1.94444 15.4207 2.60009 15.5389 3.45169L15.5515 3.57463L15.5556 3.69444L15.5562 6.07472C15.2107 5.74308 14.8182 5.46004 14.3897 5.2366L14.3889 3.69444C14.3889 3.39913 14.1694 3.15506 13.8847 3.11644L13.8056 3.11111H7.79411L5.94793 4.64994C5.67274 4.87927 5.33482 5.01782 4.98039 5.04888L4.82761 5.05556L1.16667 5.05478V10.6944C1.16667 10.9898 1.38612 11.2338 1.67085 11.2725L1.75 11.2778L7.24394 11.2781C7.37809 11.6933 7.56447 12.0849 7.79535 12.4454L1.75 12.4444C0.823772 12.4444 0.0656095 11.7249 0.00403733 10.8143L0 10.6944V1.75C0 0.823772 0.71957 0.0656097 1.63018 0.00403733L1.75 0H4.82761ZM4.82761 1.16667H1.75C1.45468 1.16667 1.21062 1.38612 1.17199 1.67085L1.16667 1.75V3.88811L4.82761 3.88889C4.93678 3.88889 5.04319 3.85827 5.13506 3.80129L5.20105 3.75368L6.67178 2.527L5.20105 1.30187C5.11718 1.23198 5.01584 1.18738 4.90878 1.17234L4.82761 1.16667ZM16.3333 9.72222C16.3333 12.0848 14.4181 14 12.0556 14C9.693 14 7.77778 12.0848 7.77778 9.72222C7.77778 7.35967 9.693 5.44444 12.0556 5.44444C14.4181 5.44444 16.3333 7.35967 16.3333 9.72222ZM11.6667 8.32775V12.0556C11.6667 12.2703 11.8408 12.4444 12.0556 12.4444C12.2703 12.4444 12.4444 12.2703 12.4444 12.0556V8.32775L13.725 9.60832C13.8769 9.76019 14.1231 9.76019 14.275 9.60832C14.4269 9.45645 14.4269 9.21022 14.275 9.05835L12.3305 7.1139C12.1787 6.96203 11.9324 6.96203 11.7806 7.1139L9.83613 9.05835C9.68425 9.21022 9.68425 9.45645 9.83613 9.60832C9.988 9.76019 10.2342 9.76019 10.3861 9.60832L11.6667 8.32775Z" fill="url(#paint0_linear_8091_44412)"/>
<defs>
<linearGradient id="paint0_linear_8091_44412" x1="18.0958" y1="2.4849e-07" x2="3.85835" y2="17.1948" gradientUnits="userSpaceOnUse">
<stop stop-color="#6E72EE"/>
<stop offset="1" stop-color="#595DDC"/>
</linearGradient>
</defs>
</svg>