<svg width="32" height="32" viewBox="0 0 32 32" fill="none" xmlns="http://www.w3.org/2000/svg">
<path d="M15.9343 0.79248C7.54237 0.79248 0.714844 7.65124 0.714844 16.0815C0.714844 24.5119 7.54237 31.3706 15.9343 31.3706C24.3262 31.3706 31.1537 24.5119 31.1537 16.0815C31.1537 7.65124 24.3262 0.79248 15.9343 0.79248ZM24.3703 12.9665L14.6503 22.731C14.3544 23.0282 13.9444 23.1988 13.5262 23.1988V23.86L13.512 23.1988C13.0882 23.1952 12.6765 23.0173 12.3823 22.7109L7.47853 17.6048C6.86975 16.9711 6.88785 15.9586 7.51867 15.347C7.81648 15.0581 8.2084 14.8994 8.62204 14.8994C9.0574 14.8994 9.4638 15.0726 9.76622 15.3873L13.5466 19.3235L22.1228 10.7084C22.4229 10.4069 22.822 10.2406 23.2469 10.2406C23.6714 10.2406 24.0705 10.4066 24.3706 10.7081C24.9899 11.3309 24.9899 12.3441 24.3703 12.9665Z" fill="#02BA71"/>
</svg>