<svg width="14" height="17" viewBox="0 0 14 17" fill="none" xmlns="http://www.w3.org/2000/svg">
<path fill-rule="evenodd" clip-rule="evenodd" d="M1 2.5C1 1.39543 1.89543 0.5 3 0.5H11C12.1046 0.5 13 1.39543 13 2.5V14.5C13.5523 14.5 14 14.9477 14 15.5C14 16.0523 13.5523 16.5 13 16.5H10C9.44772 16.5 9 16.0523 9 15.5V13.5C9 12.9477 8.55229 12.5 8 12.5H6C5.44772 12.5 5 12.9477 5 13.5V15.5C5 16.0523 4.55228 16.5 4 16.5H1C0.447715 16.5 0 16.0523 0 15.5C0 14.9477 0.447715 14.5 1 14.5V2.5ZM4 3.5H6V5.5H4V3.5ZM6 7.5H4V9.5H6V7.5ZM8 3.5H10V5.5H8V3.5ZM10 7.5H8V9.5H10V7.5Z" fill="#4F4F4F"/>
</svg>
