<svg width="25" height="25" viewBox="0 0 25 25" fill="none" xmlns="http://www.w3.org/2000/svg">
<circle cx="12.1094" cy="12.0391" r="12" fill="#E73B18"/>
<path d="M12 5.03906C8.12667 5.03906 5 8.16573 5 12.0391C5 15.9124 8.12667 19.0391 12 19.0391C15.8733 19.0391 19 15.9124 19 12.0391C19 8.16573 15.8733 5.03906 12 5.03906ZM18.3778 12.0391C18.3778 13.688 17.7556 15.1813 16.7289 16.3168L7.72222 7.31017C8.85778 6.28351 10.3511 5.66128 12 5.66128C15.5156 5.66128 18.3778 8.52351 18.3778 12.0391ZM5.62222 12.0391C5.62222 10.3902 6.24444 8.89684 7.27111 7.76128L16.2778 16.768C15.1422 17.7946 13.6489 18.4168 12 18.4168C8.48444 18.4168 5.62222 15.5546 5.62222 12.0391Z" fill="white" stroke="white"/>
</svg>
