<svg width="25" height="24" viewBox="0 0 25 24" fill="none" xmlns="http://www.w3.org/2000/svg">
<circle cx="12.1094" cy="12" r="12" fill="#3B95CD"/>
<path d="M7.30992 14.7915C7.10121 14.4544 6.66775 14.326 6.33061 14.5347C5.99348 14.7434 5.86504 15.1768 6.07375 15.514C6.20218 15.7387 6.44299 15.8672 6.69986 15.8672C6.82829 15.8672 6.94067 15.8351 7.0691 15.7709C7.39019 15.5782 7.50257 15.1287 7.30992 14.7915Z" fill="white" stroke="white" stroke-width="0.5"/>
<path d="M12.1248 17.5547C11.7234 17.5547 11.4023 17.8758 11.4023 18.2771C11.4023 18.6785 11.7234 18.9996 12.1248 18.9996C12.5261 18.9996 12.8472 18.6785 12.8472 18.2771C12.8472 17.8758 12.5261 17.5547 12.1248 17.5547Z" fill="white" stroke="white" stroke-width="0.5"/>
<path d="M16.9254 14.7765C16.7328 15.1136 16.8451 15.5631 17.1983 15.7558C17.3107 15.82 17.4391 15.8521 17.5676 15.8521C17.8084 15.8521 18.0653 15.7237 18.1937 15.4828C18.3863 15.1457 18.274 14.6962 17.9368 14.5035C17.5676 14.3109 17.1181 14.4233 16.9254 14.7765Z" fill="white" stroke="white" stroke-width="0.5"/>
<path d="M9.3467 16.816C8.9935 16.6234 8.56004 16.7358 8.36739 17.089C8.17474 17.4422 8.28712 17.8756 8.62426 18.0683C8.73664 18.1325 8.86507 18.1646 8.9935 18.1646C9.23432 18.1646 9.49118 18.0362 9.61962 17.7953C9.81227 17.4582 9.68383 17.0247 9.3467 16.816Z" fill="white" stroke="white" stroke-width="0.5"/>
<path d="M17.6641 11.9998C17.6641 12.4011 17.9851 12.7222 18.3865 12.7222C18.7879 12.7222 19.1089 12.4011 19.1089 11.9998C19.1089 11.5984 18.7879 11.2773 18.3865 11.2773C17.9851 11.2773 17.6641 11.5984 17.6641 11.9998Z" fill="white" stroke="white" stroke-width="0.5"/>
<path d="M17.551 9.57464C17.6794 9.57464 17.7918 9.54253 17.9202 9.47831C18.2574 9.26961 18.3858 8.83615 18.1771 8.48296C17.9684 8.14582 17.5349 8.01739 17.1978 8.22609C16.8607 8.41874 16.7322 8.86826 16.9409 9.20539C17.0533 9.44621 17.2941 9.57464 17.551 9.57464Z" fill="white" stroke="white" stroke-width="0.5"/>
<path d="M14.8884 7.18492C15.0008 7.24913 15.1292 7.28124 15.2577 7.28124C15.5145 7.28124 15.7553 7.15281 15.8838 6.92805C16.0925 6.59091 15.964 6.1414 15.6269 5.94875C15.2898 5.74004 14.8403 5.86848 14.6476 6.20561C14.4228 6.54275 14.5513 6.99227 14.8884 7.18492Z" fill="white" stroke="white" stroke-width="0.5"/>
<path d="M15.8802 17.0725C15.6715 16.7193 15.2381 16.6069 14.9009 16.8156C14.5638 17.0243 14.4354 17.4578 14.6441 17.811C14.7725 18.0357 15.0294 18.1642 15.2702 18.1642C15.3986 18.1642 15.511 18.1321 15.6394 18.0678C15.9605 17.8591 16.0889 17.4096 15.8802 17.0725Z" fill="white" stroke="white" stroke-width="0.5"/>
<path d="M5.83181 12.722C6.23317 12.722 6.55425 12.401 6.55425 11.9996C6.55425 8.93327 9.04264 6.44487 12.109 6.44487C12.5103 6.44487 12.8314 6.12379 12.8314 5.72244C12.8314 5.32108 12.5103 5 12.109 5C8.25599 5 5.10938 8.14661 5.10938 11.9996C5.10938 12.401 5.43046 12.722 5.83181 12.722Z" fill="white" stroke="white" stroke-width="0.5"/>
</svg>
