<svg width="20" height="20" viewBox="0 0 20 20" fill="none" xmlns="http://www.w3.org/2000/svg">
<path fill-rule="evenodd" clip-rule="evenodd" d="M7.60039 2.80002C4.94942 2.80002 2.80039 4.94906 2.80039 7.60002C2.80039 10.251 4.94942 12.4 7.60039 12.4C10.2514 12.4 12.4004 10.251 12.4004 7.60002C12.4004 4.94906 10.2514 2.80002 7.60039 2.80002ZM0.400391 7.60002C0.400391 3.62357 3.62394 0.400024 7.60039 0.400024C11.5768 0.400024 14.8004 3.62357 14.8004 7.60002C14.8004 9.15502 14.3074 10.5949 13.4693 11.7719L19.2489 17.5515C19.7175 18.0201 19.7175 18.7799 19.2489 19.2486C18.7803 19.7172 18.0205 19.7172 17.5519 19.2486L11.7722 13.4689C10.5953 14.3071 9.15539 14.8 7.60039 14.8C3.62394 14.8 0.400391 11.5765 0.400391 7.60002Z" fill="#778290"/>
</svg>
