<svg width="24" height="23" viewBox="0 0 24 23" fill="none" xmlns="http://www.w3.org/2000/svg">
<path d="M8.8 13.1998C9.46274 13.1998 10 12.6625 10 11.9998C10 11.337 9.46274 10.7998 8.8 10.7998C8.13726 10.7998 7.6 11.337 7.6 11.9998C7.6 12.6625 8.13726 13.1998 8.8 13.1998ZM12.8 0.799761C12.8 0.566482 12.6982 0.344822 12.5212 0.192841C12.3442 0.0408596 12.1097 -0.0263021 11.8791 0.00894694L0.679118 1.72095C0.288505 1.78065 0 2.11661 0 2.51176V19.8878C0 20.2829 0.288444 20.6188 0.679005 20.6786L11.879 22.3922C12.1096 22.4275 12.3441 22.3603 12.5212 22.2084C12.6982 22.0564 12.8 21.8347 12.8 21.6014V11.1998L21.0756 11.1998L19.4806 12.5977C19.1486 12.8887 19.1149 13.3941 19.4054 13.7266C19.6959 14.0591 20.2005 14.0928 20.5324 13.8018L23.7272 11.0018C23.9006 10.8499 24 10.6305 24 10.3998C24 10.1691 23.9006 9.94962 23.7272 9.79771L20.5324 6.99771C20.2005 6.70676 19.6959 6.74046 19.4054 7.07297C19.1149 7.40548 19.1486 7.91089 19.4806 8.20183L21.0756 9.59978L12.8 9.59978V0.799761ZM11.2 1.73134V20.6697L1.6 19.2009V3.19877L11.2 1.73134ZM15.2 20.7998H14.4V12.7998H16V19.9998C16 20.4416 15.6418 20.7998 15.2 20.7998ZM14.4 7.99976V1.59976H15.2C15.6418 1.59976 16 1.95793 16 2.39976V7.99976H14.4Z" fill="#212121"/>
</svg>