<svg width="16" height="16" viewBox="0 0 16 16" fill="none" xmlns="http://www.w3.org/2000/svg">
<path fill-rule="evenodd" clip-rule="evenodd" d="M15.1998 8.00005C15.1998 11.9765 11.9763 15.2 7.9998 15.2C4.02335 15.2 0.799805 11.9765 0.799805 8.00005C0.799805 4.0236 4.02335 0.800049 7.9998 0.800049C11.9763 0.800049 15.1998 4.0236 15.1998 8.00005ZM8.89981 11.6C8.89981 12.0971 8.49686 12.5 7.9998 12.5C7.50275 12.5 7.0998 12.0971 7.0998 11.6C7.0998 11.103 7.50275 10.7 7.9998 10.7C8.49686 10.7 8.89981 11.103 8.89981 11.6ZM7.9998 3.50005C7.50275 3.50005 7.0998 3.90299 7.0998 4.40005V8.00005C7.0998 8.49711 7.50275 8.90005 7.9998 8.90005C8.49686 8.90005 8.89981 8.49711 8.89981 8.00005V4.40005C8.89981 3.90299 8.49686 3.50005 7.9998 3.50005Z" fill="#000"/>
</svg>
