<svg width="16" height="13" viewBox="0 0 16 13" fill="none" xmlns="http://www.w3.org/2000/svg">
<path d="M2 0.5C0.895431 0.5 0 1.39543 0 2.5V3.5H16V2.5C16 1.39543 15.1046 0.5 14 0.5H2Z" fill="#6E72EE"/>
<path fill-rule="evenodd" clip-rule="evenodd" d="M16 5.5H0V10.5C0 11.6046 0.895431 12.5 2 12.5H14C15.1046 12.5 16 11.6046 16 10.5V5.5ZM2 9.5C2 8.94771 2.44772 8.5 3 8.5H4C4.55228 8.5 5 8.94771 5 9.5C5 10.0523 4.55228 10.5 4 10.5H3C2.44772 10.5 2 10.0523 2 9.5ZM7 8.5C6.44772 8.5 6 8.94771 6 9.5C6 10.0523 6.44772 10.5 7 10.5H8C8.55228 10.5 9 10.0523 9 9.5C9 8.94771 8.55228 8.5 8 8.5H7Z" fill="#6E72EE"/>
</svg>
