<svg width="32" height="24" viewBox="0 0 32 24" fill="none" xmlns="http://www.w3.org/2000/svg">
<path d="M27.4783 0.000257487H4.1398C1.85718 0.000257487 0 1.8575 0 4.14005V19.8602C0 22.1428 1.85725 24 4.1398 24H27.4783C29.7609 24 31.6181 22.1428 31.6181 19.8602L31.6184 4.14005C31.6184 1.85718 29.7611 0 27.4783 0L27.4783 0.000257487ZM4.1398 2.52041H27.4783C28.3715 2.52041 29.0982 3.24714 29.0982 4.14031V7.80074H2.51976L2.52001 4.14031C2.52001 3.24708 3.24675 2.52041 4.13992 2.52041H4.1398ZM27.4783 21.4805H4.1398C3.24656 21.4805 2.51989 20.7538 2.51989 19.8606V13.6506H29.0983V19.8606C29.0981 20.7538 28.3713 21.4805 27.4782 21.4805H27.4783Z" fill="white"/>
</svg>
