<svg width="16" height="16" viewBox="0 0 16 16" fill="none" xmlns="http://www.w3.org/2000/svg">
<path fill-rule="evenodd" clip-rule="evenodd" d="M7.9998 15.2C11.9763 15.2 15.1998 11.9765 15.1998 8.00005C15.1998 4.0236 11.9763 0.800049 7.9998 0.800049C4.02335 0.800049 0.799805 4.0236 0.799805 8.00005C0.799805 11.9765 4.02335 15.2 7.9998 15.2ZM8.9998 4.40005C8.9998 3.84776 8.55209 3.40005 7.9998 3.40005C7.44752 3.40005 6.9998 3.84776 6.9998 4.40005V8.00005C6.9998 8.26527 7.10516 8.51962 7.2927 8.70716L9.83828 11.2527C10.2288 11.6433 10.862 11.6433 11.2525 11.2527C11.643 10.8622 11.643 10.2291 11.2525 9.83853L8.9998 7.58584V4.40005Z" fill="#E69800"/>
</svg>
