<svg width="38" height="38" viewBox="0 0 38 38" fill="none" xmlns="http://www.w3.org/2000/svg">
<rect width="38" height="38" rx="19" fill="#219653"/>
<path fill-rule="evenodd" clip-rule="evenodd" d="M19 27C23.4183 27 27 23.4183 27 19C27 14.5817 23.4183 11 19 11C14.5817 11 11 14.5817 11 19C11 23.4183 14.5817 27 19 27ZM22.7071 17.7071C23.0976 17.3166 23.0976 16.6834 22.7071 16.2929C22.3166 15.9024 21.6834 15.9024 21.2929 16.2929L18 19.5858L16.7071 18.2929C16.3166 17.9024 15.6834 17.9024 15.2929 18.2929C14.9024 18.6834 14.9024 19.3166 15.2929 19.7071L17.2929 21.7071C17.6834 22.0976 18.3166 22.0976 18.7071 21.7071L22.7071 17.7071Z" fill="white"/>
</svg>
