<svg width="18" height="15" viewBox="0 0 18 15" fill="none" xmlns="http://www.w3.org/2000/svg">
<path d="M8 3.5C8 5.15685 6.65685 6.5 5 6.5C3.34315 6.5 2 5.15685 2 3.5C2 1.84315 3.34315 0.5 5 0.5C6.65685 0.5 8 1.84315 8 3.5Z" fill="#6E72EE"/>
<path d="M16 3.5C16 5.15685 14.6569 6.5 13 6.5C11.3431 6.5 10 5.15685 10 3.5C10 1.84315 11.3431 0.5 13 0.5C14.6569 0.5 16 1.84315 16 3.5Z" fill="#6E72EE"/>
<path d="M11.9291 14.5C11.9758 14.1734 12 13.8395 12 13.5C12 11.8648 11.4393 10.3606 10.4998 9.16907C11.2352 8.74355 12.0892 8.5 13 8.5C15.7614 8.5 18 10.7386 18 13.5V14.5H11.9291Z" fill="#6E72EE"/>
<path d="M5 8.5C7.76142 8.5 10 10.7386 10 13.5V14.5H0V13.5C0 10.7386 2.23858 8.5 5 8.5Z" fill="#6E72EE"/>
</svg>
