<svg width="21" height="22" viewBox="0 0 21 22" fill="none" xmlns="http://www.w3.org/2000/svg">
<path d="M13.7506 11.9953C14.9927 11.9953 15.9995 13.0022 15.9995 14.2442V15.1626C15.9995 15.4482 15.9551 15.7301 15.8693 15.9989H13.8352C14.1384 15.3508 14.0226 14.5553 13.4876 14.02C12.8044 13.3363 11.6964 13.336 11.0127 14.0191L8.51272 16.5175C8.18419 16.8458 7.99966 17.2913 7.99976 17.7557C7.99986 18.2202 8.18459 18.6656 8.51326 18.9937L9.44773 19.9268C8.98354 19.9732 8.4997 19.9964 7.99646 19.9964C4.57549 19.9964 2.05253 18.9243 0.510368 16.7599C0.178405 16.294 0 15.7362 0 15.1641V14.2442C0 13.0022 1.00686 11.9953 2.24888 11.9953H13.7506ZM7.99646 0C10.7579 0 12.9965 2.23858 12.9965 5C12.9965 7.76142 10.7579 10 7.99646 10C5.23503 10 2.99646 7.76142 2.99646 5C2.99646 2.23858 5.23503 0 7.99646 0ZM12.7802 15.7816C13.073 15.4886 13.0729 15.0138 12.78 14.7209C12.487 14.4281 12.0121 14.4282 11.7193 14.7212L9.21931 17.2222C9.07869 17.3629 8.99971 17.5537 8.99976 17.7526C8.9998 17.9515 9.07886 18.1423 9.21954 18.2829L11.7195 20.7818C12.0125 21.0746 12.4874 21.0745 12.7802 20.7816C13.073 20.4886 13.0729 20.0138 12.78 19.7209L11.5599 18.5014H18.4399L17.2196 19.7209C16.9266 20.0137 16.9265 20.4885 17.2193 20.7815C17.5121 21.0745 17.9869 21.0747 18.2799 20.7819L20.7799 18.2835C20.9206 18.1429 20.9997 17.9521 20.9998 17.7532C20.9998 17.5543 20.9209 17.3635 20.7803 17.2228L18.2803 14.7212C17.9875 14.4282 17.5126 14.4281 17.2196 14.7209C16.9266 15.0137 16.9265 15.4885 17.2193 15.7815L18.4383 17.0014H11.5609L12.7802 15.7816Z" fill="#212121"/>
</svg>