<svg width="24" height="24" viewBox="0 0 24 24" fill="none" xmlns="http://www.w3.org/2000/svg">
<path d="M12 0C5.38327 0 0 5.38327 0 12C0 18.6167 5.38327 24 12 24C18.6167 24 24 18.6167 24 12C24 5.38327 18.6167 0 12 0ZM18.6515 9.55511L10.9876 17.219C10.7543 17.4523 10.431 17.5862 10.1013 17.5862V18.1051L10.0901 17.5862C9.75594 17.5833 9.43135 17.4437 9.1994 17.2032L5.33293 13.1956C4.85293 12.6982 4.8672 11.9035 5.36458 11.4235C5.59939 11.1967 5.90841 11.0722 6.23455 11.0722C6.57782 11.0722 6.89825 11.2081 7.13669 11.4551L10.1174 14.5445L16.8794 7.78275C17.116 7.54612 17.4307 7.41561 17.7657 7.41561C18.1004 7.41561 18.4151 7.54586 18.6518 7.78249C19.1401 8.27131 19.1401 9.06655 18.6515 9.55511Z" fill="white"/>
</svg>